<?xml version="1.0" standalone="no"?>
<!DOCTYPE svg PUBLIC "-//W3C//DTD SVG 20010904//EN"
 "http://www.w3.org/TR/2001/REC-SVG-20010904/DTD/svg10.dtd">
<svg version="1.0" xmlns="http://www.w3.org/2000/svg"
 width="2230.000000pt" height="2230.000000pt" viewBox="0 0 2230.000000 2230.000000"
 preserveAspectRatio="xMidYMid meet">
<metadata>
Created by potrace 1.11, written by Peter Selinger 2001-2013
</metadata>
<g transform="translate(0.000000,2230.000000) scale(0.100000,-0.100000)"
fill="#000000" stroke="none">
<path d="M70 22276 c-70 -46 -65 85 -65 -1630 l0 -1551 22 -31 c65 -91 210
-78 258 22 13 28 15 197 15 1473 l0 1441 1440 0 c1125 0 1445 3 1467 12 117
52 124 208 13 266 l-44 22 -1536 -1 -1535 0 -35 -23z"/>
<path d="M19105 22293 c-54 -14 -105 -82 -105 -140 0 -46 41 -114 80 -135 33
-17 100 -18 1477 -18 l1443 0 0 -1431 c0 -1087 3 -1441 12 -1472 17 -58 85
-100 149 -94 53 4 95 33 121 80 16 30 17 139 18 1565 0 1405 -1 1536 -16 1565
-22 42 -60 74 -97 81 -35 7 -3053 6 -3082 -1z"/>
<path d="M11018 21125 c-1 -2 -47 -6 -101 -9 -90 -5 -155 -11 -232 -21 -116
-14 -175 -22 -215 -29 -30 -5 -119 -19 -140 -22 -44 -6 -248 -45 -330 -64 -52
-12 -106 -23 -120 -26 -45 -9 -223 -53 -315 -79 -49 -14 -99 -27 -110 -29 -23
-5 -304 -89 -355 -106 -39 -13 -51 -17 -62 -19 -7 -1 -46 -15 -103 -37 -11 -4
-22 -8 -25 -9 -3 -1 -25 -7 -50 -15 -25 -7 -49 -17 -54 -22 -6 -4 -16 -8 -23
-8 -7 0 -60 -19 -119 -42 -84 -33 -111 -48 -132 -76 l-27 -35 0 -1206 c0
-1190 0 -1206 20 -1233 24 -33 90 -68 129 -68 15 0 100 24 189 54 226 75 271
89 447 135 135 36 334 82 410 96 14 3 36 7 50 10 43 10 302 55 355 61 28 4 57
8 65 9 8 1 47 5 85 10 39 4 79 9 90 11 10 2 49 6 85 9 36 3 83 8 105 10 245
27 1014 27 1220 1 17 -2 71 -7 120 -11 50 -4 92 -8 95 -10 3 -1 37 -6 75 -9
39 -4 77 -9 85 -11 8 -2 38 -6 65 -10 28 -3 91 -13 140 -21 50 -9 99 -17 110
-18 11 -2 34 -6 50 -10 48 -10 78 -16 115 -22 137 -20 668 -166 908 -249 56
-19 114 -35 129 -35 38 0 104 35 128 68 20 27 20 45 22 1227 l3 1200 -25 37
c-29 43 -85 71 -320 163 -283 111 -722 249 -949 299 -173 39 -295 65 -326 70
-19 3 -46 8 -60 11 -85 16 -203 34 -255 40 -33 4 -71 8 -85 11 -14 2 -59 7
-100 10 -41 3 -86 8 -100 11 -28 5 -556 13 -562 8z m567 -309 c22 -3 90 -10
150 -17 61 -6 119 -13 130 -15 10 -2 37 -6 60 -9 43 -6 135 -22 175 -30 14 -3
41 -8 60 -11 19 -3 64 -13 100 -21 36 -8 76 -17 90 -20 191 -35 684 -186 970
-298 80 -31 153 -59 163 -62 16 -5 17 -62 17 -1005 0 -948 -1 -1000 -17 -995
-10 3 -79 24 -153 47 -219 67 -528 142 -760 185 -14 3 -36 7 -50 10 -42 8
-193 33 -240 40 -25 3 -72 10 -105 15 -33 5 -87 12 -120 15 -33 4 -70 8 -83
10 -12 2 -57 7 -100 10 -42 3 -93 8 -112 10 -222 26 -1119 26 -1220 0 -8 -2
-56 -6 -106 -10 -51 -3 -101 -8 -112 -10 -12 -2 -48 -6 -81 -10 -33 -3 -68 -7
-78 -9 -17 -3 -80 -12 -153 -22 -19 -3 -71 -11 -115 -19 -44 -8 -91 -16 -105
-19 -52 -9 -146 -26 -165 -30 -253 -55 -485 -114 -669 -170 -82 -25 -151 -46
-153 -46 -1 0 -3 447 -3 994 l0 993 83 31 c344 130 1082 334 1357 376 19 3 58
10 85 15 51 10 66 13 190 31 39 6 81 12 95 15 14 2 53 7 87 10 34 3 70 7 80 9
10 2 68 7 128 11 61 4 112 9 114 11 5 5 522 -4 566 -10z"/>
<path d="M10150 19810 l0 -150 1000 0 1000 0 0 150 0 150 -1000 0 -1000 0 0
-150z"/>
<path d="M1602 17793 c-32 -6 -88 -68 -96 -105 -3 -17 -6 -223 -6 -459 l0
-429 -692 0 -693 0 -39 -23 c-21 -12 -47 -38 -57 -57 -19 -34 -19 -193 -17
-5580 3 -5343 4 -5546 21 -5572 10 -15 30 -35 45 -45 26 -17 145 -18 3082 -18
l3055 0 30 23 c17 13 38 38 47 55 19 36 23 122 8 163 -6 15 -102 118 -213 228
-112 111 -243 246 -292 301 -50 55 -110 123 -134 150 -60 68 -306 379 -356
450 -22 32 -45 63 -52 70 -14 14 -218 321 -259 388 -239 396 -441 797 -564
1117 -18 47 -40 103 -50 125 -9 22 -23 58 -29 80 -7 22 -15 47 -18 55 -4 8 -7
17 -7 20 -1 3 -4 10 -7 15 -4 6 -14 35 -23 65 -10 30 -20 62 -23 70 -4 8 -7
17 -8 20 0 3 -13 43 -28 90 -84 268 -189 702 -220 915 -3 17 -8 46 -11 65 -9
52 -15 88 -22 139 -3 25 -8 57 -10 71 -5 31 -30 262 -40 370 -26 299 -26 935
1 1205 2 22 7 69 10 105 6 69 8 84 25 220 6 47 13 103 16 125 17 136 93 523
140 710 272 1082 797 2097 1523 2945 142 166 225 254 428 455 116 116 217 223
222 238 13 35 14 117 2 150 -12 32 -56 76 -88 88 -14 5 -503 9 -1214 9 l-1189
0 0 439 c0 476 -1 485 -56 526 -14 11 -36 23 -48 27 -23 7 -2057 8 -2094 1z
m1898 -734 c0 -487 0 -486 64 -532 l31 -22 1114 -3 1115 -2 -110 -113 c-156
-160 -304 -327 -424 -477 -19 -24 -46 -58 -60 -75 -43 -50 -121 -154 -201
-265 -303 -421 -543 -833 -759 -1305 -37 -81 -160 -374 -160 -382 0 -3 -6 -19
-14 -36 -43 -97 -200 -575 -232 -707 -2 -8 -15 -60 -29 -115 -44 -174 -109
-474 -121 -562 -3 -27 -8 -50 -9 -53 -2 -3 -7 -33 -10 -65 -4 -33 -9 -63 -11
-66 -3 -5 -14 -95 -30 -229 -3 -25 -7 -56 -9 -70 -2 -14 -7 -61 -11 -105 -4
-44 -8 -93 -10 -110 -26 -270 -26 -897 1 -1235 6 -85 22 -236 30 -300 3 -19 7
-52 10 -72 22 -166 49 -331 89 -538 15 -74 68 -298 91 -385 15 -55 29 -109 32
-120 23 -94 142 -460 190 -585 64 -165 117 -299 139 -348 13 -29 24 -54 24
-56 0 -7 80 -177 153 -326 110 -223 287 -535 429 -755 57 -88 258 -377 267
-385 3 -3 26 -32 50 -65 44 -58 239 -305 250 -315 4 -3 35 -39 71 -80 36 -41
70 -80 75 -86 61 -68 115 -125 199 -211 l100 -103 -2762 0 -2762 0 0 5350 0
5349 703 3 c660 3 704 4 729 21 65 44 63 27 66 525 l3 452 849 0 850 0 0 -441z"/>
<path d="M10849 17495 c-2 -1 -56 -6 -119 -10 -63 -3 -128 -8 -145 -9 -16 -2
-61 -7 -100 -10 -38 -4 -86 -9 -105 -12 -47 -6 -111 -16 -130 -19 -8 -2 -42
-6 -75 -9 -33 -4 -67 -9 -75 -11 -8 -2 -31 -7 -50 -10 -32 -5 -206 -39 -257
-50 -29 -6 -42 -9 -128 -30 -38 -9 -77 -18 -85 -20 -186 -40 -648 -196 -910
-308 -469 -200 -974 -491 -1331 -767 -25 -19 -60 -46 -79 -60 -18 -14 -38 -30
-44 -35 -6 -6 -31 -26 -56 -45 -49 -38 -51 -40 -185 -156 -473 -409 -916 -935
-1259 -1497 -36 -60 -66 -111 -66 -113 0 -2 -10 -21 -23 -42 -98 -156 -256
-483 -368 -760 -93 -231 -236 -664 -264 -802 -2 -8 -8 -33 -13 -55 -6 -22 -13
-51 -16 -65 -2 -14 -14 -69 -26 -124 -12 -54 -23 -108 -26 -120 -2 -11 -6 -32
-9 -46 -4 -23 -9 -49 -21 -125 -2 -16 -6 -41 -9 -55 -3 -14 -7 -43 -10 -65 -2
-22 -9 -71 -14 -110 -6 -38 -13 -101 -16 -140 -4 -38 -8 -81 -10 -94 -26 -156
-26 -1006 0 -1139 1 -9 6 -52 10 -94 3 -43 8 -88 10 -100 2 -13 6 -45 10 -73
3 -27 9 -66 12 -85 8 -51 10 -70 17 -123 4 -27 20 -114 37 -195 17 -81 32
-156 35 -168 2 -11 15 -65 29 -120 15 -54 28 -107 30 -117 36 -164 182 -588
285 -832 32 -75 41 -95 75 -170 356 -772 865 -1470 1486 -2036 185 -169 265
-236 438 -367 75 -56 149 -112 165 -125 16 -12 34 -24 40 -26 6 -2 13 -7 16
-11 12 -17 442 -290 456 -290 2 0 21 -11 42 -23 93 -59 369 -200 532 -272 47
-21 104 -46 127 -56 23 -11 45 -19 48 -19 4 0 21 -7 38 -15 161 -74 560 -205
835 -275 208 -52 575 -121 727 -136 28 -2 57 -7 65 -9 8 -2 51 -7 95 -11 44
-3 89 -8 100 -10 131 -25 983 -24 1135 1 14 2 57 6 95 10 39 3 102 10 140 16
39 5 88 12 110 15 22 2 65 9 95 14 30 5 69 11 85 14 28 4 272 53 305 61 8 2
47 10 85 19 598 139 1254 410 1805 744 121 74 360 230 370 242 3 3 36 27 73
54 74 52 284 215 332 257 17 14 68 59 115 100 228 197 490 464 686 699 323
387 591 795 812 1235 70 140 188 398 207 455 1 3 6 16 12 30 14 33 53 140 53
144 0 1 -71 2 -158 2 l-159 -1 -68 -160 c-178 -419 -409 -825 -685 -1200 -90
-123 -104 -142 -140 -185 -8 -9 -26 -32 -40 -50 -14 -19 -32 -40 -41 -49 -8
-9 -37 -43 -65 -75 -121 -147 -408 -440 -569 -582 -49 -43 -92 -82 -95 -85 -4
-4 -148 -120 -292 -235 -132 -105 -472 -326 -698 -453 -168 -95 -593 -296
-710 -336 -3 -1 -18 -7 -35 -15 -130 -55 -579 -197 -745 -235 -150 -35 -394
-85 -465 -95 -44 -7 -87 -13 -95 -15 -9 -2 -43 -6 -75 -10 -33 -4 -68 -9 -78
-11 -10 -2 -53 -6 -95 -10 -42 -3 -85 -8 -95 -10 -99 -18 -745 -26 -947 -11
-185 14 -223 17 -345 33 -566 71 -1172 234 -1630 438 -16 8 -64 28 -105 46
-89 38 -367 178 -454 228 -33 19 -70 40 -81 46 -67 39 -213 127 -229 139 -6 4
-63 42 -126 83 -192 127 -455 330 -669 518 -83 73 -425 419 -491 496 -35 41
-66 77 -70 80 -10 8 -180 220 -235 294 -27 37 -59 79 -71 94 -27 35 -212 313
-250 375 -16 27 -36 61 -45 75 -162 268 -334 626 -469 977 -81 210 -217 676
-245 838 -4 18 -17 86 -30 152 -13 66 -26 140 -29 165 -3 25 -8 56 -11 70 -7
45 -25 183 -31 250 -3 36 -7 76 -10 90 -18 112 -26 747 -11 950 14 205 33 368
58 530 6 36 13 79 16 95 8 55 64 329 75 370 5 22 12 48 13 57 30 152 201 676
275 843 10 22 39 90 65 150 109 256 314 629 498 905 75 113 278 393 296 410 4
3 35 41 71 85 35 44 69 85 75 91 5 6 37 42 70 80 77 89 408 421 505 506 483
425 1039 782 1585 1017 55 24 118 51 140 61 22 10 108 42 190 73 357 130 596
196 1030 283 80 16 346 51 515 69 265 27 876 27 1110 1 19 -3 64 -7 100 -10
36 -4 79 -9 95 -11 17 -3 46 -7 65 -9 111 -15 257 -38 272 -42 10 -3 30 -7 45
-10 76 -12 154 -29 320 -70 765 -185 1504 -533 2153 -1012 109 -80 284 -221
359 -287 19 -16 59 -52 90 -79 85 -75 408 -402 476 -481 33 -38 76 -87 96
-110 92 -104 332 -420 374 -492 11 -18 23 -33 27 -33 4 0 8 -4 8 -9 0 -9 78
-131 100 -158 5 -7 10 -14 10 -17 0 -2 32 -58 72 -123 92 -152 269 -500 342
-673 32 -74 64 -148 71 -165 7 -16 35 -93 63 -170 42 -120 68 -198 122 -370 9
-28 77 -290 85 -325 4 -19 56 -270 59 -290 7 -35 16 -88 21 -125 4 -22 8 -51
10 -65 14 -89 31 -238 40 -350 4 -47 9 -101 11 -120 1 -19 6 -122 9 -227 l7
-193 -2878 -2 c-2869 -3 -2877 -3 -2879 -23 -1 -11 -5 -38 -9 -60 -17 -102
-26 -161 -26 -173 0 -10 612 -12 3043 -10 l3042 3 0 285 c0 253 -8 470 -20
541 -2 13 -6 56 -9 94 -7 76 -16 155 -22 195 -2 14 -11 72 -20 130 -76 514
-255 1125 -471 1605 -38 84 -215 437 -259 515 -167 300 -462 728 -660 960
-654 764 -1369 1313 -2228 1710 -327 152 -826 327 -1106 390 -19 4 -98 22
-175 40 -77 18 -149 33 -160 35 -11 1 -74 12 -140 24 -124 21 -142 24 -285 41
-47 6 -101 12 -120 15 -19 2 -69 7 -110 10 -41 4 -93 9 -115 11 -47 5 -741 14
-746 9z"/>
<path d="M16076 16777 c-21 -12 -47 -38 -57 -57 -21 -39 -25 -122 -8 -167 5
-15 99 -116 208 -223 109 -107 242 -244 297 -305 54 -60 101 -112 104 -115 3
-3 37 -43 75 -90 38 -47 72 -87 75 -90 38 -35 279 -360 396 -535 93 -137 264
-411 264 -421 0 -2 10 -21 23 -42 113 -180 350 -673 444 -922 13 -36 38 -101
55 -145 41 -108 133 -389 164 -500 32 -112 92 -342 99 -375 8 -41 12 -60 34
-165 22 -107 24 -118 46 -240 18 -104 22 -127 40 -270 9 -66 18 -136 20 -155
9 -66 15 -140 32 -365 15 -211 8 -820 -12 -1050 -13 -153 -24 -251 -35 -330
-5 -38 -12 -90 -15 -115 -3 -25 -11 -72 -17 -105 -5 -33 -12 -73 -15 -90 -30
-206 -141 -659 -231 -950 -57 -181 -172 -493 -237 -640 -7 -16 -32 -73 -55
-125 -36 -81 -194 -404 -220 -450 -5 -8 -45 -78 -88 -155 -44 -78 -86 -152
-93 -165 -8 -14 -16 -27 -19 -30 -3 -3 -23 -34 -44 -70 -92 -153 -420 -621
-455 -650 -3 -3 -40 -48 -82 -100 -42 -52 -85 -105 -95 -116 -11 -12 -41 -48
-69 -80 -89 -104 -185 -205 -387 -404 -108 -107 -201 -208 -207 -223 -32 -84
1 -192 69 -227 39 -20 51 -20 3075 -20 2861 0 3037 1 3063 17 38 25 47 35 66
70 15 30 16 470 16 5558 0 4900 -2 5530 -15 5562 -17 39 -47 70 -83 84 -14 5
-1296 9 -3055 9 l-3032 0 -39 -23z m5924 -5627 l0 -5350 -2762 0 c-1519 0
-2759 2 -2757 4 162 163 314 328 442 480 23 28 52 61 65 74 12 14 22 28 22 31
0 3 10 17 23 31 132 146 440 588 618 888 73 123 198 354 261 482 83 168 158
328 158 336 0 3 9 24 19 47 30 65 102 239 111 267 5 14 31 88 59 165 89 243
177 539 236 791 13 54 55 246 60 271 10 53 44 248 50 283 3 19 7 46 10 60 2
14 7 45 10 70 7 58 13 104 21 160 7 49 8 57 19 175 25 267 30 401 30 755 -1
294 -6 449 -20 595 -2 22 -7 72 -10 110 -10 116 -19 193 -30 265 -2 14 -6 48
-10 75 -6 58 -10 82 -35 225 -11 58 -22 121 -25 140 -3 19 -15 77 -26 129 -11
51 -22 102 -24 113 -2 11 -6 27 -9 36 -3 9 -7 29 -10 44 -2 15 -14 60 -25 101
-11 40 -22 84 -25 98 -22 117 -208 673 -286 859 -248 590 -441 952 -759 1425
-70 105 -339 468 -378 510 -10 11 -44 52 -75 90 -64 78 -81 98 -176 204 -88
99 -109 120 -210 224 l-87 87 2763 0 2762 0 0 -5350z"/>
<path d="M19994 13533 c7 -24 75 -303 80 -328 2 -11 13 -63 24 -115 22 -102
24 -111 41 -210 6 -36 16 -85 21 -110 5 -25 12 -63 15 -85 4 -22 8 -51 11 -65
11 -72 34 -242 40 -290 3 -30 7 -66 10 -80 2 -14 6 -54 10 -90 3 -36 7 -78 9
-95 3 -16 7 -64 10 -105 4 -41 8 -95 10 -120 13 -150 20 -388 20 -690 0 -348
-9 -600 -29 -805 -3 -33 -10 -109 -16 -170 -6 -60 -13 -121 -15 -135 -2 -14
-7 -50 -10 -80 -15 -117 -22 -163 -51 -345 -35 -209 -108 -574 -130 -647 -5
-17 7 -18 149 -18 l154 0 11 43 c13 47 52 231 57 262 1 11 12 72 25 135 12 63
24 131 26 150 2 19 8 58 14 85 5 28 14 86 20 130 6 44 13 91 16 105 2 14 6 50
9 81 3 31 7 64 9 75 2 10 7 53 11 94 4 41 9 89 11 105 2 17 6 68 10 115 3 47
8 103 10 125 26 317 26 1096 -1 1395 -2 25 -6 81 -10 125 -3 44 -8 91 -10 105
-2 14 -6 57 -10 95 -11 122 -13 139 -61 475 -9 70 -36 218 -61 345 -14 72 -27
141 -30 155 -2 14 -15 72 -29 129 -13 57 -26 116 -29 132 -3 15 -9 39 -15 53
-5 15 -8 26 -5 26 2 0 -1 14 -6 30 l-11 30 -155 0 c-142 0 -154 -1 -149 -17z"/>
<path d="M11388 16272 c-2 -15 -3 -83 -3 -151 0 -107 2 -124 16 -126 9 -2 61
-6 116 -9 54 -4 110 -8 123 -11 14 -2 57 -6 95 -10 39 -3 77 -8 85 -10 8 -3
31 -6 50 -9 46 -5 98 -14 190 -33 41 -8 86 -16 100 -18 96 -14 590 -156 675
-195 11 -5 63 -25 115 -46 351 -137 744 -355 1060 -587 84 -62 275 -213 306
-242 6 -5 50 -45 97 -88 126 -115 253 -243 387 -393 250 -278 520 -684 706
-1061 41 -84 76 -153 78 -153 1 0 34 15 72 33 38 19 97 46 132 62 34 16 62 32
62 35 0 30 -337 651 -370 680 -3 3 -27 39 -54 80 -77 118 -264 364 -377 495
-145 168 -389 411 -557 554 -544 463 -1176 807 -1867 1016 -66 20 -127 38
-135 40 -8 2 -64 16 -124 30 -119 29 -114 28 -236 51 -115 22 -106 20 -185 33
-115 17 -147 22 -205 27 -30 3 -66 7 -79 9 -13 2 -69 7 -125 10 -55 4 -111 8
-122 10 -17 3 -23 -2 -26 -23z"/>
<path d="M6538 9202 c-64 -26 -120 -50 -124 -54 -10 -10 54 -155 154 -348 210
-409 449 -754 767 -1110 73 -82 319 -325 395 -390 41 -36 77 -68 80 -71 17
-18 242 -195 321 -251 52 -37 99 -72 106 -78 7 -5 16 -10 21 -10 5 0 17 -9 27
-20 10 -11 24 -20 32 -20 7 0 13 -4 13 -8 0 -5 17 -18 38 -29 20 -11 89 -52
152 -91 248 -150 581 -308 865 -410 141 -51 379 -127 425 -136 14 -3 50 -12
80 -21 55 -15 361 -78 433 -89 279 -43 466 -59 687 -60 l125 -1 0 148 0 147
-55 1 c-144 2 -320 12 -420 24 -19 2 -60 7 -90 10 -30 3 -66 7 -80 9 -14 3
-61 10 -105 16 -44 7 -87 14 -95 15 -311 64 -464 103 -665 170 -492 164 -903
377 -1350 699 -38 28 -72 53 -75 56 -3 3 -23 19 -45 35 -22 17 -42 32 -45 35
-3 3 -34 29 -70 59 -180 148 -453 418 -586 581 -16 19 -36 44 -46 55 -16 20
-77 95 -101 125 -7 8 -23 31 -37 50 -13 19 -27 37 -31 40 -20 15 -232 344
-307 478 -81 144 -200 380 -232 460 -7 19 -19 32 -29 31 -9 -1 -69 -22 -133
-47z"/>
<path d="M22079 3507 c-20 -10 -45 -34 -57 -56 l-22 -39 0 -1556 0 -1556
-1742 0 c-1640 0 -1745 -1 -1777 -18 -98 -50 -111 -183 -24 -249 l36 -28 1856
0 1856 0 36 27 c21 17 41 43 48 65 9 29 11 421 9 1688 -3 1632 -3 1650 -23
1677 -25 35 -93 69 -130 66 -16 -2 -46 -11 -66 -21z"/>
<path d="M85 3283 c-41 -22 -74 -62 -80 -98 -3 -16 -4 -718 -3 -1560 3 -1715
-4 -1558 77 -1603 l39 -22 1530 0 c913 0 1541 4 1555 9 99 38 127 169 52 244
-19 19 -49 37 -66 41 -17 3 -674 6 -1460 6 l-1429 0 0 1440 c0 1424 0 1441
-20 1480 -35 69 -128 99 -195 63z"/>
</g>
</svg>
