<svg xmlns="http://www.w3.org/2000/svg" viewBox="0 0 512 512">
  <g fill="#6A6E7C" stroke-width="4">
    <path d="M362 401.4c-3 0-5.6-1-7.7-3.2-4-4.2-4-11 .3-15l139.6-134.8c4.2-4 11-4 15 .3 4 4.2 3.8 11-.4 15L369.2 398.4c-2 2-4.7 3-7.3 3z"/>
    <path d="M501.5 266.5c-2.6 0-5.3-1-7.3-3L354.5 128.7c-4.2-4-4.3-10.7-.3-15 4-4 10.7-4.2 15-.2l139.5 135c4.2 4 4.3 10.6.3 14.8-2 2.2-4.8 3.2-7.5 3.2zM150 401.5c-2.5 0-5.2-1-7.2-3L3.2 263.5c-4.2-4-4.3-10.7-.3-15 4-4 10.4-4 14.6 0l139.6 135c4.2 4 4.3 10.4.3 14.6-2 2.3-4.8 3.3-7.6 3.3z"/>
    <path d="M10.5 266.5c-2.8 0-5.5-1-7.6-3.2-4-4.2-4-11 0-15l139.6-134.8c4.2-4 11-4 15 .3 4 4.2 3.8 11-.4 15L18 263.5c-2.2 2-4.8 3-7.5 3zM205.8 446c-1 0-2 0-2.8-.3-5.6-1.6-9-7.4-7.3-13L296 73.7c1.6-5.7 7.4-9 13-7.4 5.6 1.6 9 7.4 7.3 13L216 438.3c-1.3 4.8-5.6 7.8-10.2 7.8z"/>
  </g>
</svg>
