<svg xmlns="http://www.w3.org/2000/svg" viewBox="0 0 600 600">
  <circle cx="299.5" cy="299.6" r="50.2" fill="#00D8FF"/>
  <path fill="none" stroke="#00D8FF" stroke-width="24" stroke-miterlimit="10" d="M299.5 197.6c67.4 0 130 9.7 177 26 57 19.5 92 49.2 92 76 0 28-37 59.5-98.2 79.8-46 15.2-106.8 23.2-170.8 23.2-65.5 0-127.6-7.5-174.3-23.4-59-20.2-94.6-52-94.6-79.6 0-26.6 33.4-56 89.4-75.6 47.4-16.5 111.5-26.4 179.5-26.4z"/>
  <path fill="none" stroke="#00D8FF" stroke-width="24" stroke-miterlimit="10" d="M210.7 249c33.7-58.4 73.3-107.8 111-140.6C367 69 410.2 53.4 433.4 67c24.3 14 33 61.8 20 124.7-9.7 47.7-33 104.2-65 159.6C355.6 408 318 458.3 281 490.6c-47 41-92.6 56-116.3 42.2-23-13.3-32-57-21-115.2 9.5-49.3 33-109.8 67-168.7z"/>
  <path fill="none" stroke="#00D8FF" stroke-width="24" stroke-miterlimit="10" d="M210.8 351.5C177 293.2 154 234.2 144.5 185.2c-11.5-59-3.4-104 20-117.5 24-14 70 2.2 118 45 36.4 32.2 73.7 80.7 105.7 136 33 56.8 57.5 114.3 67 162.7 12.2 61.2 2.4 108-21.4 121.7-23 13.5-65.2-.6-110.2-39.3-38-32.7-78.7-83.3-112.8-142z"/>
</svg>
