<svg xmlns="http://www.w3.org/2000/svg" viewBox="0 0 100 100">
  <path fill="#fff" d="M59.2 42c.9-.7 1.4-1.8 1.5-2.9l17.1-10.6c.3.1.6.2 1 .2l1.4 3.7c.5 1.3 1.4 2.5 2.6 3.3l9.9 7c.3.2.7.3 1 .3.5 0 .9-.2 1.3-.5l.9-.9c.3-.3.5-.8.5-1.3s-.2-.9-.5-1.3L82.2 25.8v-.5c0-1.9-1.5-3.4-3.3-3.4l-1.4-3.7c-.5-1.3-1.4-2.5-2.6-3.3L65 8c-.7-.5-1.7-.4-2.3.2l-.9.8c-.3.3-.5.8-.5 1.3s.2.9.5 1.3l12.7 12.3-14.1 8.8-.2-4.7c0-.7-.3-1.5-.7-2.1l-2.3-3.4c-.8-1.2-2.1-1.8-3.4-1.8h-7.6c-1.4 0-2.7.7-3.4 1.8L40.5 26c-.4.6-.6 1.3-.7 2.1l-.3 4.6-14.1-8.8 12.7-12.3c.3-.3.5-.8.5-1.3s-.2-.9-.5-1.3l-.9-.9c-.5-.6-1.5-.6-2.2-.1l-9.9 7c-1.2.8-2.1 2-2.6 3.3L21.1 22c-1.8 0-3.3 1.5-3.3 3.4v.5L4.2 39c-.3.3-.5.8-.5 1.3s.2.9.5 1.3l.8.8c.3.4.8.5 1.3.5.4 0 .7-.1 1-.3l9.9-7c1.2-.8 2.1-2 2.6-3.3l1.4-3.7c.3 0 .7-.1 1-.2L39.3 39c.1 1.1.6 2.2 1.5 2.9l1 .8.5 14.4-19.8 14.3h-.4l-1.4-3.7c-.5-1.3-1.4-2.5-2.6-3.3l-9.9-7c-.7-.5-1.7-.4-2.3.2l-.9.9c-.3.3-.5.8-.5 1.3s.2.9.5 1.3l13.6 13.2v.5c0 1.9 1.5 3.4 3.3 3.4l1.4 3.7c.5 1.3 1.4 2.5 2.6 3.3l9.9 7c.3.2.7.3 1 .3.5 0 .9-.2 1.3-.5l.9-1c.3-.3.5-.8.5-1.3s-.2-.9-.5-1.3L26.1 75.9l16.4-11.8v.1c.1 1.6 1 2.9 2.4 3.6l.3.2c.5.3 1.2.4 1.8.4h6.2c.6 0 1.2-.1 1.8-.4l.3-.2c1.4-.7 2.3-2 2.4-3.6v-.1l16.4 11.8L61 88.4c-.3.3-.5.8-.5 1.3s.2.9.5 1.3l.9.9c.3.4.8.5 1.3.5.4 0 .7-.1 1-.3l9.9-7c1.2-.8 2.1-2 2.6-3.3l1.4-3.7c1.8 0 3.3-1.5 3.3-3.4v-.5L95 61c.3-.3.5-.8.5-1.3s-.2-.9-.5-1.3l-.9-.9c-.6-.6-1.6-.7-2.3-.2l-9.9 7c-1.2.8-2.1 2-2.6 3.3L78 71.3h-.4L57.8 57.2l.5-14.4.9-.8zm35.1-1.7l-.6.6-9.8-6.9c-.8-.6-1.5-1.4-1.9-2.4l-1.3-3.5c.2-.1.4-.3.5-.4l13.1 12.6zm-14.1-15c0 .8-.6 1.4-1.4 1.4s-1.4-.6-1.4-1.4c0-.8.6-1.4 1.4-1.4s1.4.6 1.4 1.4zM64 9.7l9.8 6.9c.8.6 1.5 1.4 1.9 2.4l1.4 3.5c-.2.1-.4.3-.5.4l-13-12.6.4-.6zm11.5 15.9c.1.6.3 1.2.6 1.7l-15.4 9.5-.1-1.8 14.9-9.4zm-17.7 1.5c.2.3.3.7.4 1.1l.6 10.5c0 .7-.3 1.3-.8 1.8l-.4.4-2.8-4.3.4-13.2.4.4 2.2 3.3zm-4.6-4.4l-.4 13h-5.6l-.4-13h6.4zM39.3 36.8l-15.4-9.5c.3-.5.5-1 .6-1.7L39.4 35l-.1 1.8zM24.4 18.9c.4-1 1-1.8 1.9-2.4L36 9.7l.6.6-13 12.6c-.2-.2-.3-.3-.5-.4l1.3-3.6zm-3.2 5c.8 0 1.4.6 1.4 1.4 0 .8-.6 1.4-1.4 1.4s-1.4-.6-1.4-1.4c0-.8.6-1.4 1.4-1.4zm-3.3 7.7c-.4 1-1 1.8-1.9 2.4l-9.8 6.9-.6-.6 13-12.6c.2.2.3.3.5.4l-1.2 3.5zm23.3 7l.6-10.5c0-.4.1-.8.4-1.1l2.3-3.4c.1-.2.2-.3.4-.4l.4 13.2-2.8 4.3-.5-.3c-.5-.4-.8-1.1-.8-1.8zM6.6 59.7l.6-.6L17 66c.8.6 1.5 1.4 1.9 2.4l1.3 3.5c-.2.1-.4.3-.5.4L6.6 59.7zm14 15c0-.8.6-1.4 1.4-1.4s1.4.6 1.4 1.4-.6 1.4-1.4 1.4-1.4-.6-1.4-1.4zm16.3 15.6l-9.8-6.9c-.8-.6-1.5-1.4-1.9-2.4l-1.4-3.5c.2-.1.4-.3.5-.4l13 12.6-.4.6zM25.3 74c-.1-.6-.4-1.2-.8-1.6l17.8-12.8.1 2.1L25.3 74zm20.4-8c-.7-.3-1.2-1.1-1.2-1.9l-.7-21.6 1.6-2.5.8 26.2c-.1 0-.5-.2-.5-.2zm2.5.4l-.9-28.6h5.5l-.9 28.6h-3.7zm6.1-.4s-.4.2-.5.2l.9-26.2 1.6 2.5-.7 21.6c-.1.9-.5 1.6-1.3 1.9zm20.4 15.1c-.4 1-1 1.8-1.9 2.4L63 90.4l-.6-.6 13-12.6c.2.2.3.3.5.4l-1.2 3.5zm3.3-5c-.8 0-1.4-.6-1.4-1.4s.6-1.4 1.4-1.4 1.4.6 1.4 1.4-.7 1.4-1.4 1.4zm3.2-7.7c.4-1 1-1.8 1.9-2.4l9.8-6.9.6.6-13 12.6c-.2-.2-.3-.3-.5-.4l1.2-3.5zm-5.7 4c-.4.4-.7 1-.8 1.6l-17-12.3.1-2.1 17.7 12.8z" />
</svg>
