<svg viewBox="0 0 100 100">
  <path fill="#fff" d="M93.94,49.264V31.706c0-1.74-1.435-3.21-3.135-3.21h-9.332c-4.438-2.945-9.758-4.664-15.473-4.664    s-11.034,1.718-15.473,4.664H34.053c-1.312-1.456-4.278-4.292-7.469-4.292H10.843c-2.508,0-4.71,1.374-5.745,3.583    c-0.273,0.582-0.441,1.122-0.528,1.7C4.522,29.807,4.5,30.1,4.5,30.409v42.296c0,0.306,0.021,0.576,0.07,0.906    c0.088,0.585,0.256,1.127,0.527,1.706c1.034,2.205,3.235,3.575,5.746,3.575h15.741c3.253,0,6.27-2.979,7.546-4.431h15.207    C54,77.914,59.766,79.96,66.001,79.96s12-2.046,16.665-5.498h8.14c1.758,0,3.135-1.308,3.135-2.978V54.528    c0.08-0.867,0.124-1.744,0.124-2.632S94.021,50.131,93.94,49.264z M31.36,71.953c-1.125,1.287-3.231,3.201-4.776,3.201H10.843    c-1.044,0-1.949-0.546-2.361-1.424c-0.117-0.249-0.181-0.452-0.214-0.673c-0.021-0.145-0.029-0.234-0.029-0.353V35.003H31.36    V71.953z M31.36,31.265H8.238v-0.856c0-0.125,0.008-0.231,0.029-0.368c0.032-0.218,0.094-0.411,0.214-0.667    c0.414-0.883,1.319-1.432,2.361-1.432h15.741c1.536,0,3.645,1.882,4.776,3.15V31.265z M35.099,70.724v-38.49h10.9    c-4.982,5.068-8.061,12.012-8.061,19.663c0,7.238,2.755,13.845,7.271,18.827H35.099z M90.202,70.724h-3.409    c1.287-1.42,2.431-2.974,3.409-4.635V70.724z M90.202,54.363c-1.24,12.26-11.621,21.858-24.201,21.858    c-13.413,0-24.325-10.912-24.325-24.325s10.912-24.326,24.325-24.326c12.58,0,22.961,9.599,24.201,21.859V54.363z M90.202,37.704    c-1.174-1.993-2.586-3.83-4.198-5.47h4.198V37.704z M66.001,29.821c-12.172,0-22.075,9.902-22.075,22.075    c0,12.172,9.903,22.075,22.075,22.075s22.075-9.903,22.075-22.075C88.076,39.724,78.173,29.821,66.001,29.821z M66.001,71.757    c-10.951,0-19.86-8.91-19.86-19.86s8.909-19.86,19.86-19.86c10.95,0,19.86,8.91,19.86,19.86S76.951,71.757,66.001,71.757z     M66.001,39.773c-6.818,0-12.366,5.549-12.366,12.367c0,6.819,5.548,12.366,12.366,12.366s12.366-5.547,12.366-12.366    C78.367,45.322,72.819,39.773,66.001,39.773z M66.001,60.769c-4.758,0-8.628-3.871-8.628-8.628c0-4.758,3.87-8.629,8.628-8.629    s8.628,3.871,8.628,8.629C74.629,56.897,70.759,60.769,66.001,60.769z M68.272,47.923l-6.404,6.405    c-0.433,0.433-0.433,1.134,0,1.566c0.216,0.216,0.499,0.324,0.782,0.324s0.567-0.108,0.784-0.324l6.405-6.406    c0.433-0.432,0.433-1.133,0-1.565C69.406,47.49,68.706,47.49,68.272,47.923z M65.839,48.091c0.434-0.433,0.434-1.134,0-1.566    c-0.433-0.433-1.134-0.433-1.565,0l-4.067,4.066c-0.433,0.433-0.433,1.135,0,1.567c0.216,0.215,0.499,0.323,0.783,0.323    c0.283,0,0.566-0.108,0.782-0.323L65.839,48.091z" />
</svg>
